<svg width="278" height="265" viewBox="0 0 278 265" fill="none" xmlns="http://www.w3.org/2000/svg">
<path d="M151.902 181.719H233.935V195.793H151.902V181.719ZM151.902 162.235H233.935V148.161H151.902V162.235ZM192.885 113.826H151.902V127.894H192.885V113.826ZM192.885 76.0747H151.902V90.1485H192.885V76.0747ZM151.902 229.158H233.935V215.084H151.902V229.158ZM278 29.4008V264.397H135.528V264.728L134.324 264.397H0V29.4008H11.8735V0L124.812 29.4008H278ZM267.647 138.6H263.713H253.63V155.198H263.713H267.647V138.6ZM23.8032 46.2702V221.205L123.613 247.214V46.2702V43.4867L69.4809 29.3888L23.8032 17.4899V29.3828V46.2702ZM69.486 247.533L17.8435 234.068V247.533H69.486ZM135.528 247.533H243.298V46.2822H229.577V129.641L215.112 113.808L200.677 129.641V46.2822H135.538V247.533H135.528V247.533ZM114.087 67.8207L59.3065 46.2822L40.0955 38.7332L37.9576 46.2822L36.2992 52.078L110.286 81.1656L114.087 67.8207ZM114.087 105.542L40.1006 76.4542L36.3299 89.8111L110.321 118.899L114.087 105.542ZM114.087 143.251L40.1006 114.157L36.3299 127.514L110.321 156.608L114.087 143.251ZM114.087 180.978L40.1006 151.914L36.3299 165.259L110.321 194.323L114.087 180.978ZM114.087 214.373L40.1006 185.267L36.3248 198.624L110.316 227.718L114.087 214.373Z" fill="white"/>
</svg>
