<svg width="45" height="45" viewBox="0 0 45 45" fill="none" xmlns="http://www.w3.org/2000/svg">
<path d="M37.793 16.6992C37.793 8.26699 30.9322 1.40625 22.5 1.40625C14.0678 1.40625 7.20703 8.26699 7.20703 16.6992C7.20703 24.4767 13.043 30.9173 20.5664 31.87V34.6289H17.4023C16.8895 34.6289 16.3977 34.8326 16.0351 35.1952C15.6725 35.5579 15.4688 36.0497 15.4688 36.5625C15.4688 37.0753 15.6725 37.5671 16.0351 37.9298C16.3977 38.2924 16.8895 38.4961 17.4023 38.4961H20.5664V41.6602C20.5664 42.173 20.7701 42.6648 21.1327 43.0274C21.4954 43.39 21.9872 43.5938 22.5 43.5938C23.0128 43.5938 23.5046 43.39 23.8673 43.0274C24.2299 42.6648 24.4336 42.173 24.4336 41.6602V38.4961H27.5977C28.1105 38.4961 28.6023 38.2924 28.9649 37.9298C29.3275 37.5671 29.5312 37.0753 29.5312 36.5625C29.5312 36.0497 29.3275 35.5579 28.9649 35.1952C28.6023 34.8326 28.1105 34.6289 27.5977 34.6289H24.4336V31.87C31.957 30.9173 37.793 24.4767 37.793 16.6992ZM11.0742 16.6992C11.0742 10.3992 16.2 5.27344 22.5 5.27344C28.8 5.27344 33.9258 10.3992 33.9258 16.6992C33.9258 22.9992 28.8 28.125 22.5 28.125C16.2 28.125 11.0742 22.9992 11.0742 16.6992Z" fill="white" fill-opacity="0.74"/>
</svg>
