<svg width="68" height="68" viewBox="0 0 68 68" fill="none" xmlns="http://www.w3.org/2000/svg">
<path d="M33.5196 30.0103C32.9088 30.1878 32.5561 30.8264 32.7324 31.4384C32.7636 31.5456 35.8409 42.4926 34.9938 66.807C34.9707 67.4444 35.4686 67.978 36.1048 67.9988C36.1187 67.9999 36.1325 67.9999 36.1463 67.9999C36.7641 67.9999 37.2747 67.5101 37.2966 66.8877C38.1575 42.2068 35.0779 31.2517 34.9477 30.7975C34.7713 30.1855 34.134 29.8375 33.5196 30.0103Z" fill="white"/>
<path d="M62.5009 18.9931C57.6187 7.45592 46.3697 0 33.8413 0C29.7071 0 25.6754 0.807946 21.8593 2.40079C19.7455 3.2825 17.7481 4.33133 15.9225 5.51731C15.3888 5.86539 15.2367 6.57882 15.5836 7.11246C15.9317 7.6461 16.6463 7.79823 17.1787 7.45131C18.888 6.34024 20.7609 5.35711 22.7468 4.52842C26.2817 3.05198 30.0137 2.30512 33.8413 2.30512C45.4407 2.30512 55.8576 9.20782 60.3768 19.8921C62.2554 24.334 63.2708 32.5126 63.7088 36.9938C63.7676 37.5897 64.2678 38.0334 64.8545 38.0334C64.8913 38.0334 64.9294 38.0311 64.9686 38.0276C65.6013 37.9654 66.0647 37.4018 66.0024 36.7679C65.4526 31.1365 64.3992 23.48 62.5009 18.9931Z" fill="white"/>
<path d="M12.5063 11.1926C12.9604 10.7466 12.9639 10.0158 12.5178 9.56289C12.0718 9.10993 11.3422 9.10532 10.8881 9.55136C4.68965 15.6576 -1.48463 27.0138 4.29893 46.4299C4.44761 46.9312 4.90518 47.254 5.40308 47.254C5.51142 47.254 5.62207 47.2378 5.73156 47.2056C6.34127 47.0246 6.68934 46.3826 6.50724 45.7729C2.18859 31.2714 4.26205 19.3147 12.5063 11.1926Z" fill="white"/>
<path d="M34.7265 6.93139C31.1997 6.79424 27.7674 7.4293 24.5229 8.78241C13.2209 13.4975 7.21141 25.9256 10.5458 37.6933C10.8789 38.87 11.22 40.1217 11.4033 41.3688C11.8159 44.1914 11.8378 49.386 11.8378 57.6257C11.8378 58.263 12.353 58.7782 12.9904 58.7782C13.6277 58.7782 14.1429 58.263 14.1429 57.6257C14.1429 49.0299 14.121 44.0208 13.6842 41.0334C13.4813 39.648 13.1183 38.3134 12.7633 37.064C9.74705 26.4189 15.1837 15.1745 25.4104 10.9089C28.3471 9.68371 31.4717 9.12702 34.6447 9.23306C42.8406 9.52812 52.1302 16.7524 54.9321 25.0105C57.3571 32.1552 57.3778 44.3274 57.077 55.2894C57.0597 55.9256 57.5622 56.4558 58.1984 56.4731C58.8231 56.4616 59.3648 55.9902 59.3821 55.3517C59.6876 44.1845 59.6564 31.7576 57.115 24.2682C53.9835 15.0397 43.9401 7.26103 34.7265 6.93139Z" fill="white"/>
<path d="M33.8414 13.8308C32.5885 13.8308 31.3415 13.9657 30.1324 14.2331C29.5112 14.3702 29.1182 14.9845 29.2553 15.6069C29.3925 16.2281 29.9999 16.6131 30.6292 16.484C31.6746 16.2535 32.7557 16.1359 33.8402 16.1359C39.8716 16.1359 45.2886 19.725 47.6387 25.2815C50.4394 31.8972 50.6227 42.5158 49.9761 61.0444C49.953 61.6806 50.4509 62.2154 51.0872 62.2361C51.101 62.2373 51.1148 62.2373 51.1287 62.2373C51.7464 62.2373 52.257 61.7474 52.2789 61.125C52.952 41.8507 52.7468 31.4373 49.7606 24.3825C47.0509 17.9731 40.8017 13.8308 33.8414 13.8308Z" fill="white"/>
<path d="M25.2813 18.8293C25.8022 18.4639 25.929 17.7447 25.5625 17.2238C25.1983 16.7028 24.4779 16.5749 23.957 16.9426C18.0213 21.1102 15.4418 29.1171 17.543 36.8761C17.5672 36.9602 19.9069 45.4765 19.9069 58.7794C19.9069 59.4168 20.4221 59.932 21.0594 59.932C21.6968 59.932 22.212 59.4168 22.212 58.7794C22.212 45.1642 19.8631 36.6133 19.7651 36.2641C17.9199 29.4478 20.1374 22.4414 25.2813 18.8293Z" fill="white"/>
<path d="M45.2634 55.3298C45.268 54.6925 44.7563 54.1738 44.1189 54.1692C44.1166 54.1692 44.1131 54.1692 44.1108 54.1692C43.4781 54.1692 42.9629 54.6798 42.9583 55.3137C42.9525 56.1804 42.9813 57.4459 43.0124 58.8129C43.0574 60.801 43.1081 63.0543 43.0585 64.5031C43.0355 65.1393 43.5334 65.6729 44.1708 65.6937C44.1846 65.6948 44.1973 65.6948 44.2111 65.6948C44.8289 65.6948 45.3395 65.205 45.3614 64.5814C45.4144 63.0681 45.3625 60.7791 45.3164 58.7598C45.2853 57.4206 45.2576 56.1793 45.2634 55.3298Z" fill="white"/>
<path d="M33.8413 21.8987C32.6173 21.8987 31.4232 22.1384 30.2902 22.611C25.8045 24.4827 23.625 29.5436 25.219 34.3832C26.088 37.0214 26.8222 50.8326 26.8222 64.5423C26.8222 65.1797 27.3374 65.6949 27.9747 65.6949C28.6121 65.6949 29.1273 65.1797 29.1273 64.5423C29.1273 52.2018 28.4703 36.8866 27.41 33.6629C26.1952 29.9781 27.8168 26.1413 31.1789 24.7386C32.0283 24.3836 32.9238 24.2038 33.8413 24.2038C36.6247 24.2038 39.1246 25.8612 40.2138 28.4337C42.3656 33.5269 43.0053 42.7474 43.1621 49.5867C43.177 50.2137 43.6899 50.7127 44.3146 50.7127C44.3227 50.7127 44.3331 50.7127 44.3411 50.7127C44.9773 50.6977 45.481 50.1699 45.4672 49.5337C45.3047 42.4961 44.6304 32.9656 42.3322 27.5278C40.8869 24.1081 37.5537 21.8987 33.8413 21.8987Z" fill="white"/>
</svg>
