<svg width="32" height="27" viewBox="0 0 32 27" fill="none" xmlns="http://www.w3.org/2000/svg">
<path d="M11.9764 13.7399L13.0605 13.1755C13.2377 13.0832 13.4334 13.0279 13.6324 13.0116C13.5168 12.8927 13.4037 12.7694 13.294 12.641C11.9874 11.1118 11.2679 9.09032 11.2679 6.94904C11.2679 4.14077 11.9713 2.01483 13.3587 0.630595C13.5765 0.413275 13.81 0.215517 14.0584 0.0365872C13.7908 0.0120177 13.5176 0 13.2398 0C9.96085 0 7.30273 1.62693 7.30273 6.94904C7.30287 10.2794 9.30448 13.0619 11.9764 13.7399Z" fill="white"/>
<path d="M4.19767 23.6402L7.19295 16.8927C7.43965 16.337 7.87262 15.8761 8.41208 15.5952L9.75232 14.8976C9.41309 14.714 9.08454 14.5034 8.76948 14.2651C8.67714 14.1953 8.55302 14.185 8.45054 14.2383L3.80209 16.6581C3.50238 16.8141 3.2619 17.0701 3.12483 17.3789L0.129483 24.1263C-0.0769545 24.5914 -0.0346254 25.1237 0.242716 25.5504C0.520058 25.9769 0.989416 26.2316 1.4983 26.2316H4.42094C4.41466 26.222 4.40772 26.2131 4.40144 26.2035C3.90217 25.4355 3.82606 24.4773 4.19767 23.6402Z" fill="white"/>
<path d="M18.7599 13.8981C22.0387 13.8981 24.6969 10.7868 24.6969 6.94903C24.6969 1.62693 22.0389 0 18.7599 0C15.4809 0 12.8228 1.62693 12.8228 6.94903C12.8228 10.7869 15.4809 13.8981 18.7599 13.8981Z" fill="white"/>
<path d="M31.8706 24.1264L28.8753 17.3789C28.7382 17.0701 28.4976 16.8142 28.1979 16.6581L23.5494 14.2384C23.4469 14.185 23.3227 14.1954 23.2305 14.2651C21.9159 15.2595 20.37 15.7852 18.7602 15.7852C17.1504 15.7852 15.6046 15.2595 14.2898 14.2651C14.1974 14.1953 14.0733 14.1849 13.9708 14.2384L9.32247 16.6581C9.02276 16.8142 8.78227 17.0701 8.6452 17.3789L5.64999 24.1264C5.44355 24.5915 5.48588 25.1237 5.76322 25.5504C6.04057 25.977 6.50992 26.2317 7.01881 26.2317H30.5018C31.0107 26.2317 31.48 25.9771 31.7574 25.5504C32.0347 25.1237 32.077 24.5914 31.8706 24.1264Z" fill="white"/>
</svg>
