<svg width="45" height="45" viewBox="0 0 45 45" fill="none" xmlns="http://www.w3.org/2000/svg">
<path d="M27.3113 0V6.26558H34.1923L25.1222 15.219C22.5771 13.5823 19.5435 12.6325 16.2863 12.6325C7.2921 12.6325 1.46459e-10 19.8776 1.46459e-10 28.8155C-3.77358e-05 37.7535 7.2921 45 16.2863 45C25.2805 45 32.5712 37.7535 32.5712 28.8155C32.5712 25.4182 31.5182 22.2654 29.7183 19.6621L38.6361 10.8001V17.5781H44.9411C44.9411 12.0853 45.001 5.47853 45 0H27.3113ZM16.2863 19.1466C21.6603 19.1466 26.0161 23.4751 26.0161 28.8155C26.0161 34.156 21.6603 38.486 16.2863 38.486C10.9122 38.486 6.555 34.156 6.555 28.8155C6.555 23.4751 10.9122 19.1466 16.2863 19.1466Z" fill="white" fill-opacity="0.74"/>
</svg>
