<svg width="31" height="31" viewBox="0 0 31 31" fill="none" xmlns="http://www.w3.org/2000/svg">
<path d="M24.6568 16.9292L19.4257 11.4999L24.6568 6.07073C25.3782 5.32213 24.8999 4 23.8022 4H10.7792C10.3488 4 10 4.36204 10 4.80868V18.1913C10 18.638 10.3488 19 10.7792 19H23.8022C24.8985 19 25.379 17.6787 24.6568 16.9292Z" fill="white"/>
<path d="M7.99994 0C6.89544 0 6 0.939506 6 2.09843C6 2.821 6.34814 3.4582 6.87801 3.83558V29.8228C6.87801 30.4729 7.38034 31 8 31C8.61965 31 9.12199 30.4729 9.12199 29.8228V3.83558C9.6518 3.4582 10 2.821 10 2.09843C9.99994 0.939506 9.10451 0 7.99994 0Z" fill="white"/>
</svg>
