<svg width="27" height="31" viewBox="0 0 27 31" fill="none" xmlns="http://www.w3.org/2000/svg">
<path d="M3.11893 31C2.60082 30.999 2.09187 30.8635 1.64217 30.6066C0.629525 30.0338 0 28.9218 0 27.7147V3.28546C0 2.07495 0.629525 0.966367 1.64217 0.393543C2.10258 0.129401 2.62562 -0.00643418 3.15662 0.000234215C3.68761 0.00690261 4.20707 0.155831 4.66068 0.431451L25.5759 12.9291C26.0118 13.2019 26.3712 13.5808 26.6202 14.0302C26.8693 14.4796 27 14.9848 27 15.4984C27 16.012 26.8693 16.5172 26.6202 16.9666C26.3712 17.4159 26.0118 17.7948 25.5759 18.0677L4.6573 30.5687C4.19309 30.8489 3.66138 30.9979 3.11893 31Z" fill="white"/>
</svg>
